<svg width="100" height="100" viewBox="0 0 100 100" fill="none" xmlns="http://www.w3.org/2000/svg">
<g clip-path="url(#clip0_930_19)">
<rect width="100" height="100" rx="50" fill="url(#paint0_linear_930_19)"/>
<ellipse cx="47" cy="40" rx="50" ry="49" fill="url(#paint1_linear_930_19)"/>
<g filter="url(#filter0_di_930_19)">
<circle cx="55.5" cy="43.5" r="33.5" fill="#E7E7E7"/>
</g>
<path d="M74.8539 36.0442C80.2105 39.1369 80.2105 46.8685 74.8539 49.9611L52.6033 62.8075C47.2467 65.9001 40.5509 62.0343 40.5509 55.849V30.1563C40.5509 23.971 47.2467 20.1052 52.6033 23.1979L74.8539 36.0442Z" fill="url(#paint2_linear_930_19)"/>
<path d="M40.5 40C40.5 40 49 40.9999 61.5 40C74 39 67 54.5 67 54.5L55.5 61L53.1998 62.5334C47.4825 66.345 39.896 61.8448 40.5 55V55V40Z" fill="url(#paint3_linear_930_19)"/>
</g>
<defs>
<filter id="filter0_di_930_19" x="17.6" y="9" width="72.4" height="70.4" filterUnits="userSpaceOnUse" color-interpolation-filters="sRGB">
<feFlood flood-opacity="0" result="BackgroundImageFix"/>
<feColorMatrix in="SourceAlpha" type="matrix" values="0 0 0 0 0 0 0 0 0 0 0 0 0 0 0 0 0 0 127 0" result="hardAlpha"/>
<feOffset dx="-4" dy="2"/>
<feGaussianBlur stdDeviation="0.2"/>
<feComposite in2="hardAlpha" operator="out"/>
<feColorMatrix type="matrix" values="0 0 0 0 0 0 0 0 0 0 0 0 0 0 0 0 0 0 0.33 0"/>
<feBlend mode="normal" in2="BackgroundImageFix" result="effect1_dropShadow_930_19"/>
<feBlend mode="normal" in="SourceGraphic" in2="effect1_dropShadow_930_19" result="shape"/>
<feColorMatrix in="SourceAlpha" type="matrix" values="0 0 0 0 0 0 0 0 0 0 0 0 0 0 0 0 0 0 127 0" result="hardAlpha"/>
<feOffset dx="1" dy="-1"/>
<feGaussianBlur stdDeviation="1.35"/>
<feComposite in2="hardAlpha" operator="arithmetic" k2="-1" k3="1"/>
<feColorMatrix type="matrix" values="0 0 0 0 0 0 0 0 0 0 0 0 0 0 0 0 0 0 0.45 0"/>
<feBlend mode="normal" in2="shape" result="effect2_innerShadow_930_19"/>
</filter>
<linearGradient id="paint0_linear_930_19" x1="97.5" y1="38.5" x2="50" y2="100" gradientUnits="userSpaceOnUse">
<stop stop-color="#DF63FB"/>
<stop offset="1" stop-color="#7444F4"/>
</linearGradient>
<linearGradient id="paint1_linear_930_19" x1="72.5" y1="4.5" x2="18.5" y2="78.5" gradientUnits="userSpaceOnUse">
<stop stop-color="#C129FA"/>
<stop offset="1" stop-color="#6B25F3"/>
</linearGradient>
<linearGradient id="paint2_linear_930_19" x1="44.5" y1="20.5" x2="72" y2="52.5" gradientUnits="userSpaceOnUse">
<stop stop-color="#FF6787"/>
<stop offset="1" stop-color="#FDBE55"/>
</linearGradient>
<linearGradient id="paint3_linear_930_19" x1="41.5" y1="40" x2="65.5" y2="56" gradientUnits="userSpaceOnUse">
<stop stop-color="#FD1176" stop-opacity="0.52"/>
<stop offset="1" stop-color="#FF7A34"/>
</linearGradient>
<clipPath id="clip0_930_19">
<rect width="100" height="100" rx="50" fill="white"/>
</clipPath>
</defs>
</svg>
